<?xml version="1.0" encoding="UTF-8" standalone="no"?>
<svg width="220px" height="70px" viewBox="0 0 220 70" version="1.1" xmlns="http://www.w3.org/2000/svg" xmlns:xlink="http://www.w3.org/1999/xlink">
    <!-- Generator: Sketch 41.2 (35397) - http://www.bohemiancoding.com/sketch -->
    <title>logo_A00820_new</title>
    <desc>Created with Sketch.</desc>
    <defs>
        <polygon id="path-1" points="0.0422222222 0.610448276 0.0422222222 20.7371379 18.7375185 20.7371379 18.7375185 0.610448276 0.0422222222 0.610448276"></polygon>
    </defs>
    <g id="Page-1" stroke="none" stroke-width="1" fill="none" fill-rule="evenodd">
        <g id="logo_A00820_new">
            <g id="Auto_Blaser_Logo_c4" transform="translate(10.000000, 23.000000)">
                <g id="Group-3" transform="translate(0.000000, 1.000000)">
                    <mask id="mask-2" fill="white">
                        <use xlink:href="#path-1"></use>
                    </mask>
                    <g id="Clip-2"></g>
                    <path d="M9.36840741,3.12972414 L5.21162963,12.5326552 L13.5568519,12.5326552 L9.36840741,3.12972414 Z M17.2006296,20.7371379 L14.1254444,13.8237931 L4.64233333,13.8237931 L1.56785185,20.7371379 L0,20.7371379 L8.97151852,0.610448276 L9.79696296,0.610448276 L18.7375185,20.7371379 L17.2006296,20.7371379 L17.2006296,20.7371379 Z" id="Fill-1" fill="#1A1918" mask="url(#mask-2)"></path>
                </g>
                <path d="M33.7862985,18.5127902 C32.2913403,20.1721226 30.3691522,21 28.0135024,21 C25.6606223,21 23.7363569,20.2021752 22.243476,18.5986548 C20.7464405,16.9586419 20,14.8642625 20,12.3169475 L20,1 L21.4845718,1 L21.4845718,12.2017459 C21.4845718,14.459268 22.0745229,16.2538371 23.2502705,17.5861687 C24.4460986,18.9170692 26.0435366,19.5825194 28.0418921,19.5825194 C30.0215519,19.5825194 31.5906003,18.8984652 32.7511144,17.5296412 C33.9261696,16.1779901 34.5154282,14.3547995 34.5154282,12.0579228 L34.5154282,1 L36,1 L36,12.1731244 C36,14.7204393 35.2618687,16.8319917 33.7862985,18.5127902" id="Fill-4" fill="#1A1918"></path>
                <polyline id="Fill-5" fill="#1A1918" points="48.7497923 2.29027581 48.7497923 21 47.2481085 21 47.2481085 2.29027581 40 2.29027581 40 1 56 1 56 2.29027581 48.7497923 2.29027581"></polyline>
                <path d="M72.7550056,4.91580732 C71.0486703,3.23972312 68.9635486,2.40132787 66.4989219,2.40132787 C64.0386077,2.40132787 61.9520485,3.23972312 60.2457131,4.91580732 C58.52069,6.610962 57.6567409,8.63808448 57.6567409,11.0007063 C57.6567409,13.3816923 58.5099086,15.4116401 60.2184002,17.0877243 C61.9218606,18.7623958 64.0192012,19.6007911 66.4989219,19.6007911 C68.9635486,19.6007911 71.0486703,18.7623958 72.7550056,17.0877243 C74.4807475,15.3904506 75.3432591,13.3633282 75.3432591,11.0007063 C75.3432591,8.63808448 74.4807475,6.610962 72.7550056,4.91580732 Z M73.9754595,18.1139992 C71.9593387,20.0401187 69.4673991,21 66.4989219,21 C63.5139131,21 61.0219735,20.0500071 59.025978,18.1422517 C57.0069822,16.2196638 56,13.8393841 56,11.0007063 C56,8.16344116 56.9990759,5.79234355 58.9972276,3.88741348 C61.0119109,1.96200028 63.5139131,1 66.4989219,1 C69.4465551,1 71.9399322,1.95423082 73.9754595,3.85704196 C75.9944553,5.78174883 77,8.16344116 77,11.0007063 C77,13.8203136 75.9944553,16.1914112 73.9754595,18.1139992 L73.9754595,18.1139992 Z" id="Fill-6" fill="#1A1918"></path>
                <polygon id="Fill-7" fill="#AB2430" points="73 27 98 27 98 25 73 25"></polygon>
                <path d="M109.782993,17.4430337 C110.52551,16.8870804 110.895322,16.1141352 110.895322,15.1192341 C110.895322,14.5086783 110.79907,14.0066185 110.60367,13.6130546 C110.407547,13.2223273 110.112277,12.9025123 109.722926,12.6536098 C109.295218,12.3678328 108.762574,12.1472952 108.129336,11.9934153 C107.492479,11.8409536 106.705092,11.7615317 105.770793,11.7615317 L103.016387,11.7615317 L103.016387,18.3032012 L106.267976,18.3032012 C107.070561,18.3032012 107.753735,18.2273249 108.317498,18.0741541 C108.884156,17.9202742 109.372654,17.7139191 109.782993,17.4430337 Z M108.054795,8.26342271 C108.407237,7.99679206 108.675006,7.68123185 108.858103,7.31603296 C109.044818,6.95437969 109.139623,6.50266766 109.139623,5.96798811 C109.139623,5.37445127 109.044818,4.88444655 108.858103,4.48946444 C108.675006,4.10015533 108.415921,3.78034038 108.08519,3.53214696 C107.714655,3.26126157 107.242078,3.05845208 106.664564,2.91308165 C106.087051,2.76842034 105.382166,2.69750794 104.541225,2.69750794 L103.016387,2.69750794 L103.016387,9.06827852 L104.628069,9.06827852 C106.189093,9.06827852 107.331817,8.79739312 108.054795,8.26342271 Z M112.449108,11.1594854 C113.482554,12.1189302 114,13.3875532 114,14.9767002 C114,16.8693523 113.316826,18.3606402 111.952649,19.4519822 C110.60367,20.4830486 108.805996,21 106.561075,21 L100,21 L100,0 L105.066632,0 C106.12396,0 107.088653,0.119841967 107.96795,0.360235024 C108.846524,0.600628081 109.618713,0.966536098 110.281623,1.46434119 C111.610339,2.53511853 112.273973,3.98811373 112.273973,5.8261633 C112.273973,7.48551361 111.64001,8.83426758 110.367744,9.86887958 C111.168157,10.1553657 111.864358,10.5865131 112.449108,11.1594854 L112.449108,11.1594854 Z" id="Fill-8" fill="#1A1918"></path>
                <polyline id="Fill-9" fill="#1A1918" points="127 18.3032012 125.715962 21 117 21 117 0 120.074312 0 120.074312 18.3032012 127 18.3032012"></polyline>
                <path d="M135.446518,11.5975094 L141.580978,11.5975094 L138.50282,4.86654135 L135.446518,11.5975094 Z M128,21 L137.64339,0 L128,21 Z M137.64339,0 L139.384107,0 L149,21 L145.890821,21 L142.810549,14.2753759 L134.221883,14.2753759 L131.139495,21 L128,21 L137.64339,0 Z" id="Fill-10" fill="#1A1918"></path>
                <path d="M161.772829,11.8838897 C162.591402,12.8599419 163,14.2089985 163,15.9281567 C163,17.5914369 162.406363,19.0232221 161.218401,20.2148041 C160.030439,21.4063861 158.598968,22 156.930181,22 C155.760103,22 154.665692,21.766328 153.645572,21.296807 C153.198452,21.0834543 152.784351,20.8671988 152.395013,20.6531205 C152.001548,20.4383164 151.625279,20.1741655 151.251763,19.8628447 L151.251763,16.2264151 C151.752537,16.6161103 152.183835,16.946299 152.546346,17.2227866 C152.908169,17.4941945 153.226655,17.7184325 153.504557,17.8969521 C153.785899,18.0732946 154.02184,18.2213353 154.229579,18.3352685 C154.434566,18.4535559 154.620292,18.5515239 154.784695,18.628447 C155.436113,18.9419448 156.067584,19.0994194 156.678418,19.0994194 C157.644884,19.0994194 158.451075,18.7837446 159.101806,18.1618287 C159.731212,17.5145138 160.049699,16.743106 160.049699,15.8447025 C160.049699,15.3338171 159.980224,14.9056604 159.839897,14.5529753 C159.700258,14.201016 159.490456,13.894775 159.21049,13.6407837 C158.878934,13.3693759 158.44626,13.0885341 157.917971,12.8047896 C157.39037,12.5239478 156.736199,12.2445573 155.959587,11.9687954 C154.343078,11.3838897 153.126225,10.6625544 152.309028,9.79970972 C151.862597,9.31204644 151.535168,8.74310595 151.321926,8.09724238 C151.107997,7.45283019 151,6.74020319 151,5.95428157 C151,4.31204644 151.611522,2.91582003 152.836629,1.76124819 C154.02184,0.58563135 155.445744,0 157.096647,0 C158.283233,0 159.32399,0.187953556 160.215477,0.56095791 C160.661909,0.717706821 161.037489,0.878809869 161.342906,1.04426705 C161.648323,1.20972424 161.942734,1.40130624 162.219948,1.61320755 L162.275666,5.01741655 C161.902837,4.78301887 161.582975,4.58417997 161.314703,4.41872279 C161.045744,4.24891147 160.808426,4.10740203 160.605503,3.98984035 C160.401204,3.87590711 160.210662,3.76923077 160.033878,3.68359942 C159.857782,3.59506531 159.676182,3.50145138 159.490456,3.404209 C158.878934,3.07329463 158.137403,2.90783745 157.263801,2.90783745 C156.317971,2.90783745 155.538607,3.20101597 154.926397,3.78519594 C154.294927,4.43105951 153.978504,5.13425254 153.978504,5.89985486 C153.978504,6.36647315 154.042476,6.75181422 154.173861,7.05805515 C154.304557,7.35994194 154.471023,7.61103048 154.678074,7.80551524 C155.212554,8.3149492 156.178332,8.84034833 157.569905,9.38824383 C158.554944,9.76197388 159.396905,10.1473149 160.102666,10.5471698 C160.808426,10.9499274 161.366294,11.3918723 161.772829,11.8838897" id="Fill-11" fill="#1A1918"></path>
                <polyline id="Fill-12" fill="#1A1918" points="179 18.3032012 179 21 167 21 167 0 178.805974 0 178.805974 2.69750794 169.867725 2.69750794 169.867725 9.09664348 178.554842 9.09664348 178.554842 11.7898967 169.867725 11.7898967 169.867725 18.3032012 179 18.3032012"></polyline>
                <path d="M191.888576,8.09252381 C192.239224,7.82305666 192.503283,7.50749645 192.685764,7.14655231 C192.869675,6.77993517 192.960557,6.33247788 192.960557,5.79779834 C192.960557,4.83835348 192.613487,4.09519146 191.917915,3.56122104 C191.128599,2.98399406 190.048746,2.69750794 188.675493,2.69750794 L185.983373,2.69750794 L185.983373,8.92290808 L188.533802,8.92290808 C189.303797,8.92290808 189.967882,8.85199568 190.515322,8.70662524 C191.066341,8.56550956 191.525046,8.35844533 191.888576,8.09252381 Z M195.568235,14.2597758 L200,21 L196.465609,21 L192.788096,15.3177889 C192.421704,14.7660904 192.078212,14.2597758 191.760482,13.7988451 C191.439889,13.3428784 191.118581,12.9322955 190.791547,12.5663875 C190.249832,11.9359762 189.408991,11.620416 188.272605,11.620416 L185.983373,11.620416 L185.983373,21 L183,21 L183,0 L188.705548,0 C189.80687,0 190.799419,0.115587222 191.687489,0.343925171 C192.57556,0.576517863 193.356289,0.937462011 194.03397,1.4352671 C194.708074,1.9508003 195.21544,2.58546633 195.555354,3.32791923 C195.892406,4.07462687 196.06129,4.90501114 196.06129,5.8261633 C196.06129,7.27986763 195.615466,8.45417708 194.728111,9.35405551 C194.167789,9.90575404 193.580274,10.3666847 192.960557,10.7333018 C193.115844,10.8815087 193.266122,11.0481529 193.408528,11.2183427 C193.555228,11.3927872 193.70479,11.5835416 193.860077,11.7898967 C194.167789,12.2302627 194.464051,12.6536098 194.741707,13.0521375 C195.022226,13.4542108 195.299882,13.8577024 195.568235,14.2597758 L195.568235,14.2597758 Z" id="Fill-13" fill="#1A1918"></path>
            </g>
        </g>
    </g>
</svg>