<svg id="Ebene_1" data-name="Ebene 1" xmlns="http://www.w3.org/2000/svg" viewBox="0 0 316.62 78.74"><defs><style>.cls-1{fill:#002a4c;}.cls-2{fill:#fcbe00;}</style></defs><path class="cls-1" d="M132.53,23.74H136a.85.85,0,0,1,.79,1.13l-7.22,20a1.4,1.4,0,0,1-1.33,1h-4.38a1.39,1.39,0,0,1-1.32-1l-7.22-20a.85.85,0,0,1,.82-1.13h3.4a1.44,1.44,0,0,1,1.36,1L126,41.14l5.14-16.42A1.42,1.42,0,0,1,132.53,23.74Z"/><path class="cls-1" d="M154.52,37.83a8.58,8.58,0,1,1-8.58-8.38A8.26,8.26,0,0,1,154.52,37.83Zm-5.14,0a3.42,3.42,0,1,0-6.84,0,3.42,3.42,0,0,0,6.84,0Z"/><path class="cls-1" d="M167,29.54a.85.85,0,0,1,1,.82V34a.86.86,0,0,1-.91.85c-3.72-.26-4.16,2.14-4.16,4.66v5.17a1.13,1.13,0,0,1-1.11,1.14h-2.9a1.13,1.13,0,0,1-1.1-1.14V31a1.13,1.13,0,0,1,1.1-1.14h2.9A1.13,1.13,0,0,1,162.93,31v1.29A6.14,6.14,0,0,1,167,29.54Z"/><path class="cls-1" d="M183.07,29.82h3.15A1.14,1.14,0,0,1,187.36,31V44.67a1.14,1.14,0,0,1-1.14,1.14h-3.15a.85.85,0,0,1-.85-.85v-.73a5.46,5.46,0,0,1-4.51,2c-5,0-7.66-4.2-7.66-8.36s2.68-8.38,7.66-8.38a5.45,5.45,0,0,1,4.51,1.95v-.73A.85.85,0,0,1,183.07,29.82Zm-1,8a3.28,3.28,0,0,0-3.44-3.44,3.24,3.24,0,0,0-3.4,3.44,3.22,3.22,0,0,0,3.4,3.41A3.27,3.27,0,0,0,182.06,37.83Z"/><path class="cls-1" d="M200.82,29.54a.84.84,0,0,1,1,.82V34a.86.86,0,0,1-.91.85c-3.72-.26-4.16,2.14-4.16,4.66v5.17a1.13,1.13,0,0,1-1.11,1.14h-2.9a1.13,1.13,0,0,1-1.1-1.14V31a1.13,1.13,0,0,1,1.1-1.14h2.9A1.13,1.13,0,0,1,196.75,31v1.29A6.14,6.14,0,0,1,200.82,29.54Z"/><path class="cls-1" d="M205.77,23.74h2.9a1.12,1.12,0,0,1,1.11,1.13v19.8a1.13,1.13,0,0,1-1.11,1.14h-2.9a1.13,1.13,0,0,1-1.1-1.14V24.87A1.12,1.12,0,0,1,205.77,23.74Z"/><path class="cls-1" d="M231.34,37.83c0,4.16-2.71,8.36-7.66,8.36a5.36,5.36,0,0,1-4.51-2V45a.85.85,0,0,1-.85.85h-3.15A1.14,1.14,0,0,1,214,44.67V24.87a1.13,1.13,0,0,1,1.14-1.13H218a1.12,1.12,0,0,1,1.13,1.13V31.4a5.36,5.36,0,0,1,4.51-1.95C228.63,29.45,231.34,33.64,231.34,37.83Zm-5.17,0a3.42,3.42,0,1,0-3.44,3.41A3.24,3.24,0,0,0,226.17,37.83Z"/><path class="cls-1" d="M250.31,38.24a1.13,1.13,0,0,1-1.1,1.14h-10.5a3.81,3.81,0,0,0,4,2.71,4.43,4.43,0,0,0,2.84-1,.81.81,0,0,1,1-.09l2.24,1.32a.89.89,0,0,1,.22,1.29,8.3,8.3,0,0,1-6.28,2.56c-5.42,0-9-3.41-9-8.36A8.23,8.23,0,0,1,242,29.45C246.46,29.45,250.41,32.28,250.31,38.24Zm-4.67-2a3.23,3.23,0,0,0-3.46-2.75,3.45,3.45,0,0,0-3.44,2.75Z"/><path class="cls-1" d="M262.79,29.54a.85.85,0,0,1,1,.82V34a.86.86,0,0,1-.91.85c-3.72-.26-4.17,2.14-4.17,4.66v5.17a1.13,1.13,0,0,1-1.1,1.14h-2.9a1.13,1.13,0,0,1-1.1-1.14V31a1.13,1.13,0,0,1,1.1-1.14h2.9a1.13,1.13,0,0,1,1.1,1.14v1.29A6.16,6.16,0,0,1,262.79,29.54Z"/><path class="cls-1" d="M278.93,29.82h3.16A1.13,1.13,0,0,1,283.22,31V44.39c0,4.57-3.31,7.79-9,7.79a10,10,0,0,1-7.13-2.53.85.85,0,0,1,.16-1.32l2.43-1.42a.84.84,0,0,1,1,.06A5,5,0,0,0,274,48.05c3.13,0,4.07-1.71,4.07-4.2v-.72a5.31,5.31,0,0,1-4.48,1.95c-4.88,0-7.69-3.62-7.69-7.82s2.81-7.81,7.69-7.81a5.14,5.14,0,0,1,4.48,2.11v-.89A.85.85,0,0,1,278.93,29.82Zm-1,7.44a3.42,3.42,0,1,0-3.4,3.41A3.25,3.25,0,0,0,277.92,37.26Z"/><path class="cls-1" d="M303.13,38.24a1.13,1.13,0,0,1-1.1,1.14h-10.5a3.81,3.81,0,0,0,4,2.71,4.42,4.42,0,0,0,2.83-1,.82.82,0,0,1,1-.09l2.24,1.32a.88.88,0,0,1,.22,1.29,8.28,8.28,0,0,1-6.27,2.56c-5.43,0-9-3.41-9-8.36a8.23,8.23,0,0,1,8.23-8.38C299.29,29.45,303.23,32.28,303.13,38.24Zm-4.66-2A3.24,3.24,0,0,0,295,33.54a3.46,3.46,0,0,0-3.44,2.75Z"/><path class="cls-1" d="M315.61,29.54a.85.85,0,0,1,1,.82V34a.86.86,0,0,1-.91.85c-3.72-.26-4.16,2.14-4.16,4.66v5.17a1.13,1.13,0,0,1-1.11,1.14h-2.9a1.13,1.13,0,0,1-1.1-1.14V31a1.13,1.13,0,0,1,1.1-1.14h2.9A1.13,1.13,0,0,1,311.55,31v1.29A6.14,6.14,0,0,1,315.61,29.54Z"/><path class="cls-1" d="M135.57,78.33h-3.91a1.41,1.41,0,0,1-1.17-.6l-6.55-9.49v9a1.14,1.14,0,0,1-1.14,1.14h-3.15a1.14,1.14,0,0,1-1.14-1.14V57.39a1.13,1.13,0,0,1,1.14-1.13h3.15a1.13,1.13,0,0,1,1.14,1.13v8.67l6.3-9.2a1.45,1.45,0,0,1,1.17-.6H135a.83.83,0,0,1,.7,1.32l-6.65,9.33L136.26,77A.85.85,0,0,1,135.57,78.33Z"/><path class="cls-1" d="M139.39,57.86a2.7,2.7,0,0,1,2.71-2.67,2.68,2.68,0,1,1,0,5.35A2.7,2.7,0,0,1,139.39,57.86Zm.13,19.33V63.48a1.13,1.13,0,0,1,1.13-1.14h2.87a1.14,1.14,0,0,1,1.14,1.14V77.19a1.14,1.14,0,0,1-1.14,1.14h-2.87A1.13,1.13,0,0,1,139.52,77.19Z"/><path class="cls-1" d="M164.24,68.33v8.86a1.13,1.13,0,0,1-1.11,1.14h-2.9a1.13,1.13,0,0,1-1.1-1.14V69.72a2.56,2.56,0,1,0-5.11,0v7.47a1.13,1.13,0,0,1-1.14,1.14H150a1.14,1.14,0,0,1-1.14-1.14V63.48A1.14,1.14,0,0,1,150,62.34h3.15a.85.85,0,0,1,.85.85v.6A5.42,5.42,0,0,1,158.37,62C162.37,62,164.24,65.12,164.24,68.33Z"/><path class="cls-1" d="M180.81,56.26h2.87a1.12,1.12,0,0,1,1.13,1.13v19.8a1.13,1.13,0,0,1-1.13,1.14h-3.15a.85.85,0,0,1-.86-.86v-.72a5.34,5.34,0,0,1-4.5,2c-4.95,0-7.67-4.19-7.67-8.35S170.22,62,175.17,62a5.34,5.34,0,0,1,4.5,2V57.39A1.13,1.13,0,0,1,180.81,56.26Zm-1.29,14.09a3.43,3.43,0,1,0-3.41,3.4A3.26,3.26,0,0,0,179.52,70.35Z"/><path class="cls-1" d="M204.73,70.76a1.12,1.12,0,0,1-1.11,1.13h-10.5a3.83,3.83,0,0,0,4,2.72,4.45,4.45,0,0,0,2.84-1,.8.8,0,0,1,1-.1l2.24,1.33a.88.88,0,0,1,.22,1.29,8.26,8.26,0,0,1-6.27,2.55c-5.42,0-9-3.4-9-8.35A8.23,8.23,0,0,1,196.4,62C200.88,62,204.82,64.8,204.73,70.76Zm-4.67-2a3.24,3.24,0,0,0-3.47-2.74,3.44,3.44,0,0,0-3.43,2.74Z"/><path class="cls-1" d="M217.2,62.06a.84.84,0,0,1,1,.82V66.5a.85.85,0,0,1-.91.85c-3.72-.25-4.16,2.15-4.16,4.67v5.17A1.13,1.13,0,0,1,212,78.33h-2.9a1.13,1.13,0,0,1-1.1-1.14V63.48a1.13,1.13,0,0,1,1.1-1.14H212a1.13,1.13,0,0,1,1.11,1.14v1.29A6.14,6.14,0,0,1,217.2,62.06Z"/><path class="cls-1" d="M233.55,56.26h2.87a1.12,1.12,0,0,1,1.13,1.13v19.8a1.13,1.13,0,0,1-1.13,1.14h-3.15a.85.85,0,0,1-.86-.86v-.72a5.34,5.34,0,0,1-4.5,2c-4.95,0-7.67-4.19-7.67-8.35S223,62,227.91,62a5.34,5.34,0,0,1,4.5,2V57.39A1.13,1.13,0,0,1,233.55,56.26Zm-1.29,14.09a3.43,3.43,0,1,0-3.41,3.4A3.26,3.26,0,0,0,232.26,70.35Z"/><path class="cls-1" d="M258.06,70.35A8.58,8.58,0,1,1,249.49,62,8.25,8.25,0,0,1,258.06,70.35Zm-5.13,0a3.43,3.43,0,1,0-6.85,0,3.43,3.43,0,0,0,6.85,0Z"/><path class="cls-1" d="M269.92,62.06a.85.85,0,0,1,1,.82V66.5a.85.85,0,0,1-.92.85c-3.72-.25-4.16,2.15-4.16,4.67v5.17a1.13,1.13,0,0,1-1.1,1.14h-2.9a1.13,1.13,0,0,1-1.1-1.14V63.48a1.13,1.13,0,0,1,1.1-1.14h2.9a1.13,1.13,0,0,1,1.1,1.14v1.29A6.16,6.16,0,0,1,269.92,62.06Z"/><path class="cls-1" d="M280.54,62.34h2a1.14,1.14,0,0,1,1.14,1.14v2a1.14,1.14,0,0,1-1.14,1.14h-2V77.19a1.13,1.13,0,0,1-1.13,1.14h-2.87a1.13,1.13,0,0,1-1.1-1.14V66.57h-.85a1.14,1.14,0,0,1-1.14-1.14v-2a1.14,1.14,0,0,1,1.14-1.14h.85c0-3,1-6.9,6.05-6.9a9.71,9.71,0,0,1,1.48.12.86.86,0,0,1,.73.85v2.5a.82.82,0,0,1-.85.82h-.1C281.05,59.73,280.54,60.67,280.54,62.34Z"/><path class="cls-2" d="M96.8,11.51C81.09,3.78,65.18,0,50.76,0H50C32.8-.27,16.41,4.5.56,11.51c-1.56.69.61,3.07.89,4A1.12,1.12,0,0,0,3,15.94c28-14.5,63.45-14.48,91.45,0a1.11,1.11,0,0,0,1.5-.44C96.2,14.57,98.31,12.3,96.8,11.51Z"/><path class="cls-2" d="M75.5,21.51a7.13,7.13,0,1,1-7.29,7.12A7,7,0,0,1,75.5,21.51Z"/><path class="cls-2" d="M37.39,33.16h5.42c2.72,3.68,9.16,3.67,11.88,0h5.43a.82.82,0,0,0,.82-.81V30.59a.86.86,0,0,0-.91-.85,7.51,7.51,0,0,1-.82,0,3,3,0,0,1-3-1.92c-.06-.18-.13-.44-.16-.56a9,9,0,0,0-.76-2.15h0c-2.59-5-10.59-5-13.17,0h0a8.54,8.54,0,0,0-.76,2.15c0,.12-.11.38-.16.56-.56,1.61-2.23,2.05-3.78,1.91a.86.86,0,0,0-.91.85v1.76A.82.82,0,0,0,37.39,33.16Z"/><path class="cls-2" d="M29.29,28.63A7,7,0,0,1,22,35.76a7.13,7.13,0,1,1,0-14.25A7,7,0,0,1,29.29,28.63Z"/><path class="cls-2" d="M30.3,41.32V77.21a1.11,1.11,0,0,1-1.09,1.12H25.34a1.11,1.11,0,0,1-1.09-1.12V57.68H19.81V77.21a1.11,1.11,0,0,1-1.09,1.13H14.85a1.11,1.11,0,0,1-1.09-1.13V40.79L1.47,28.09a2.57,2.57,0,0,1,3.7-3.58l11.41,11.8A7.33,7.33,0,0,0,22,38.53a7.26,7.26,0,0,0,5.42-2.26H43.11a7.82,7.82,0,0,0,11.29,0H70.11a7.64,7.64,0,0,0,10.81,0l11.42-11.8A2.57,2.57,0,1,1,96,28.09L83.75,40.79V77.21a1.11,1.11,0,0,1-1.09,1.13H78.79a1.11,1.11,0,0,1-1.09-1.13V57.68H73.25V77.21a1.11,1.11,0,0,1-1.09,1.12H68.3a1.11,1.11,0,0,1-1.1-1.12V41.32H54.41l7.3,20.23a1,1,0,0,1-1,1.37H55.27V77.16a1.11,1.11,0,0,1-1.09,1.12H51.31a1.11,1.11,0,0,1-1.09-1.12V62.92H47.29V77.16a1.11,1.11,0,0,1-1.09,1.12H43.33a1.11,1.11,0,0,1-1.09-1.12V62.92h-5.5a1,1,0,0,1-1-1.37L43.1,41.32Z"/></svg>