<svg width="306" height="116" viewBox="0 0 306 116" fill="none" xmlns="http://www.w3.org/2000/svg">
<g clip-path="url(#clip0_1652_3315)">
<path fill-rule="evenodd" clip-rule="evenodd" d="M174.558 33.1381C174.679 31.855 174.814 30.516 175.097 29.2608L177.24 20H185.286L177.739 42.0502H171L168.574 30.0697H168.318C168.309 30.191 168.301 30.3118 168.293 30.4321C168.223 31.4469 168.156 32.4305 167.927 33.4031L165.784 42.0502H159.208L151.755 20.0139H159.774L162.456 33.152H162.631C162.765 31.8131 162.941 30.4045 163.278 29.0934L165.542 20H171.472L174.383 33.1381H174.558ZM187.604 20H195.34V42.0363H187.604V20ZM214.288 34.9651H207.792V20H200.057V42.0363H214.288V34.9651ZM229.733 34.3794H224.976V42.0363H217.536V20H224.976V27.4198H229.733V20H237.186V42.0363H229.733V34.3794ZM256.216 36.0112H249.464V33.8494H255.42V28.1172H249.464V26.0112H255.987V20H241.674V42.0363H256.216V36.0112ZM260.528 20H268.264V34.9651H274.76V42.0363H260.528V20ZM302.469 20H294.612L292.213 28.6471C291.993 29.4502 291.862 30.3152 291.736 31.1533C291.715 31.2904 291.695 31.4268 291.674 31.5621H291.472L288.534 20H280.569L277.119 42.0363H284.598L285.501 32.622C285.582 31.7434 285.65 30.8368 285.703 29.9582H285.946C286.013 30.8926 286.202 31.7713 286.431 32.7197L289.208 42.0363H293.722L296.795 32.1618C297.024 31.4505 297.173 30.6974 297.307 29.9582H297.442L298.493 42.0363H305.973L302.469 20ZM170.811 56.6109L173.21 47.9637H173.237H181.121L184.625 70H177.146L176.094 57.9219H175.946C175.811 58.6611 175.663 59.4142 175.447 60.1116L172.361 70H167.833L165.07 60.6834C164.841 59.7489 164.652 58.8703 164.585 57.9358H164.329C164.305 58.2417 164.284 58.551 164.262 58.8613V58.8613L164.262 58.8616L164.262 58.8619L164.262 58.8622L164.262 58.8625C164.221 59.4431 164.179 60.0274 164.127 60.5997L163.237 70H155.744L157.469 58.9679H145.124V69.7489H144.234V58.9679H131V58.0474H144.208V47.9498H145.097V58.0474H157.59L159.167 47.9637H167.132L170.07 59.5258H170.272C170.293 59.3906 170.314 59.2543 170.334 59.1173C170.461 58.279 170.591 57.414 170.811 56.6109ZM193.52 47.9637L186.108 70H194.302L194.922 67.2524H200.757L201.472 70H209.652L202.051 47.9637H193.52ZM196.323 62.0084L197.739 55.2859H198.022L198.046 55.44L198.088 55.7111L198.089 55.7167C198.213 56.5143 198.34 57.3257 198.534 58.1171L199.437 62.0084H196.337H196.323ZM219.067 53.39C219.247 52.8011 219.428 52.2086 219.666 51.6457L221.189 47.9637H229.895L222.604 60.5021V70H215.03V60.5021L207.604 47.9637H216.364L218.736 53.7238H218.965L218.991 53.6381C219.008 53.5855 219.024 53.5329 219.04 53.4803L219.067 53.39ZM239.949 61.8131H245.919V56.0809H239.949V53.9749H246.472V47.9637H232.159V70H246.701V63.9749H239.949V61.8131ZM265.111 61.3389V61.5063C265.156 61.5437 265.202 61.5814 265.249 61.6196C265.62 61.9227 266.035 62.2615 266.418 62.8312L271.04 69.986H262.119L258.736 62.9149H258.588V69.986H251.027V47.9498H260.367C265.164 47.9498 269.234 50.0558 269.234 55.6067C269.234 58.94 267.981 60.3487 265.111 61.3389ZM258.588 57.7127H259.113C260.394 57.7127 261.66 57.5593 261.66 55.8717C261.66 54.1841 260.515 53.9749 259.181 53.9749H258.588V57.7127Z" fill="black"/>
</g>
<path d="M116 0H0V116H116V0Z" fill="#FF5000"/>
<path d="M83.3357 106.257L71.108 63.084L69.0772 70.0997H55.0742L60.9395 45.8999H80.68L83.3357 53.7677L85.9915 45.8999H105.732L111.597 70.0997H97.5943L95.5634 63.084L83.3357 106.257Z" fill="black"/>
<path d="M32.6639 9.74219L44.8916 52.9155L46.9366 45.8999H60.9396L55.0742 70.0997H35.3338L32.6639 62.2319L30.0223 70.0997H10.2677L4.40234 45.8999H18.4053L20.4503 52.9155L32.6639 9.74219Z" fill="white"/>
<defs>
<clipPath id="clip0_1652_3315">
<rect width="175" height="50" fill="white" transform="translate(131 20)"/>
</clipPath>
</defs>
</svg>
